# Blender 3.1.0
# www.blender.org
mtllib gun.mtl
o Gun
v -0.113371 -0.100000 -0.650000
v 0.061768 -0.250000 -0.637500
v 0.061768 0.250000 0.050000
v 0.061768 -0.183214 -0.411686
v 0.061768 -0.100000 -0.650000
v 0.061768 0.300000 0.050000
v 0.061768 -0.675000 0.335938
v 0.061768 -0.100000 -0.374975
v 0.061768 -0.200000 -0.612500
v 0.061768 -0.600000 0.335938
v 0.061768 -0.200000 -0.235938
v 0.061768 0.370578 0.175000
v 0.061768 -0.675000 -0.085938
v -0.113371 -0.100000 -0.429382
v 0.061768 -0.112500 0.155469
v 0.061768 0.250000 0.200000
v 0.061768 0.250000 -1.331525
v 0.061768 -0.250000 -0.210938
v 0.061768 -0.152413 -0.379533
v 0.061768 -0.100000 -0.429382
v 0.061768 0.300000 -1.266362
v 0.061768 -0.600000 -0.085938
v 0.061768 0.325000 -1.225000
v 0.061768 -0.100000 -0.273438
v 0.061768 0.250000 -1.192275
v -0.062179 0.250000 0.200000
v -0.062179 -0.250000 -0.210938
v -0.062179 -0.250000 -0.637500
v -0.062179 -0.152413 -0.379533
v -0.062179 -0.183214 -0.411686
v -0.062179 -0.100000 -0.650000
v -0.062179 -0.100000 -0.429382
v -0.062179 0.300000 -1.266362
v -0.062179 0.300000 0.050000
v -0.062179 -0.675000 0.335938
v -0.062179 -0.600000 -0.085938
v -0.062179 -0.100000 -0.374975
v -0.062179 -0.200000 -0.612500
v -0.062179 0.325000 -1.225000
v -0.062179 -0.600000 0.335938
v -0.062179 -0.200000 -0.235938
v -0.062179 0.370855 0.175000
v -0.062179 -0.100000 -0.273438
v -0.062179 -0.675000 -0.085938
v -0.062179 0.250000 -1.192275
v 0.061768 -0.100000 -0.713279
v 0.061768 0.250000 -1.275000
v -0.062179 -0.100000 -0.713279
v -0.062179 0.250000 -1.275000
v -0.062179 0.250000 0.050000
v -0.062179 -0.112500 0.155469
v -0.113371 0.250000 -1.331525
v -0.113371 -0.025000 0.125000
v -0.113371 -0.025000 -0.800000
v -0.113371 -0.100000 -0.776563
v -0.113371 0.079516 -0.800000
v -0.113371 -0.025000 -1.222613
v -0.113371 0.025000 -1.225000
v -0.113371 0.025000 -1.331525
v -0.113371 -0.112500 0.155469
v -0.113371 -0.100000 -0.273438
v 0.117684 0.250000 -1.331525
v 0.117684 -0.100000 -0.776563
v 0.117684 -0.025000 0.125000
v 0.117684 -0.025000 -0.800000
v 0.117684 0.079516 -0.800000
v 0.117684 -0.025000 -1.222613
v 0.117684 0.025000 -1.225000
v 0.117684 0.025000 -1.331525
v 0.117684 -0.112500 0.155469
v 0.117684 0.250000 -0.757103
v -0.176338 0.025000 0.200000
v -0.176338 0.025000 0.250000
v -0.176338 0.079516 -0.800000
v 0.174782 0.025000 0.200000
v 0.174782 0.025000 0.250000
v 0.174782 0.079516 -0.800000
v 0.151640 -0.025000 -0.800000
v 0.174782 -0.001857 -0.800000
v 0.174782 -0.001857 0.200000
v 0.151640 -0.025000 0.200000
v -0.176338 0.204589 0.250000
v -0.130927 0.250000 0.250000
v -0.130927 0.250000 0.050000
v -0.130927 0.250000 -0.757103
v -0.176338 0.204589 -0.768529
v -0.162403 -0.007830 -0.800000
v -0.142276 -0.025000 -0.800000
v -0.142276 -0.025000 0.200000
v -0.165164 -0.008506 0.200000
v 0.174782 0.202212 -0.769127
v 0.126995 0.250000 0.250000
v 0.174782 0.202212 0.250000
vn 0.2500 -0.0000 -0.0000
vn -0.2500 -0.0000 -0.0000
vn -0.0000 -0.0000 0.2500
vn -0.0000 -0.0878 -0.2341
vn -0.0000 -0.0000 -0.2500
vn 0.0001 0.0507 0.2448
vn -0.0000 0.0426 -0.2464
vn -0.0000 -0.2500 -0.0000
vn -0.0000 -0.1805 0.1729
vn -0.0000 0.0868 0.2345
vn -0.0000 0.2140 -0.1293
vn -0.0000 -0.0119 -0.2497
vn -0.0000 0.1000 0.2291
vn -0.0000 -0.1127 -0.2231
vn -0.0000 -0.0217 0.2491
vn 0.0002 0.2176 -0.1231
vn -0.0072 -0.2499 -0.0031
vn -0.0000 -0.0520 -0.2445
vn -0.0000 -0.0841 -0.2354
vn -0.0000 0.0822 0.2361
vn -0.0000 -0.0746 -0.2386
vn -0.0000 0.0610 -0.2424
vn -0.0000 0.2500 -0.0000
vn 0.1768 -0.1768 -0.0000
vn -0.1541 -0.1969 -0.0003
vn -0.1768 0.1768 -0.0000
vn 0.1768 0.1768 -0.0016
vn 0.1605 0.1917 -0.0000
vn -0.2372 -0.0791 -0.0007
vn -0.2469 -0.0394 -0.0021
vn -0.2488 -0.0237 -0.0076
vn -0.0000 0.0878 0.2341
vt 0.714753 0.370998
vt 0.080659 0.754982
vt 0.410724 0.854204
vt 0.161190 0.034899
vt 0.636408 0.725087
vt 0.184148 0.839544
vt 0.946537 0.849622
vt 0.000000 0.924235
vt 0.490581 0.092108
vt 0.960932 0.000000
vt 0.468692 0.941180
vt 0.713997 0.725087
vt 0.903850 0.917265
vt 0.230271 0.029143
vt 0.795378 0.370996
vt 0.000000 0.754982
vt 0.923990 0.854297
vt 0.023027 0.924235
vt 0.714686 0.979023
vt 0.995473 0.849124
vt 0.670949 0.919378
vt 0.636408 0.919378
vt 0.485598 0.979503
vt 0.104888 0.973770
vt 0.795329 0.244345
vt 0.184217 0.046413
vt 0.960932 0.849124
vt 0.636408 0.919378
vt 0.903850 0.849622
vt 0.000000 0.483208
vt 0.184217 0.219836
vt 0.771768 0.969932
vt 0.903850 0.917265
vt 0.184273 0.916941
vt 0.714686 0.912913
vt 0.995473 0.654833
vt 0.705489 0.976461
vt 0.636408 0.725087
vt 0.714714 0.269402
vt 0.080659 0.856586
vt 0.409361 0.752609
vt 0.903850 0.610218
vt 0.224514 0.400095
vt 0.795401 0.000001
vt 0.509601 0.915428
vt 0.960562 0.917265
vt 0.240985 0.916941
vt 0.490581 0.023027
vt 0.490581 0.728358
vt 0.184148 0.483208
vt 0.161190 0.231349
vt 0.636408 0.921537
vt 0.105278 0.919038
vt 0.483500 0.955365
vt 0.693491 0.725087
vt 0.080659 0.973770
vt 0.460542 0.979503
vt 0.795339 0.269399
vt 0.943030 0.917265
vt 0.000000 0.856586
vt 0.342808 0.927720
vt 0.631692 0.921537
vt 0.023027 0.924235
vt 0.960932 0.654833
vt 0.670949 0.976461
vt 0.000000 0.288917
vt 0.105278 0.747877
vt 0.331294 0.946769
vt 0.045285 0.924235
vt 0.105278 0.919038
vt 0.820954 0.969932
vt 0.230271 0.202565
vt 0.795311 0.197586
vt 0.365835 0.961841
vt 0.142963 0.919038
vt 0.490581 0.664228
vt 0.960932 0.572120
vt 0.240985 0.974023
vt 0.000000 0.924235
vt 0.547664 0.023027
vt 0.391460 0.251859
vt 0.579325 0.921537
vt 0.162361 0.919038
vt 0.391460 0.448309
vt 0.579325 0.725087
vt 0.241231 0.839544
vt 0.487697 0.955365
vt 0.693491 0.782170
vt 0.080659 0.916688
vt 0.502505 0.941180
vt 0.713997 0.782170
vt 0.903850 0.974347
vt 0.738319 0.370997
vt 0.057083 0.754982
vt 0.460542 0.454065
vt 0.510655 0.979503
vt 0.738280 0.269401
vt 0.943030 0.974347
vt 0.057083 0.856586
vt 0.377349 0.957862
vt 0.631692 0.978619
vt 0.023027 0.981317
vt 0.023027 0.981317
vt 0.036544 0.861250
vt 0.771768 0.979023
vt 0.670949 0.976461
vt 0.960932 0.654833
vt 0.693490 0.919378
vt 0.230271 0.194291
vt 0.995473 0.460542
vt 0.670949 0.919378
vt 0.162361 0.747877
vt 0.485598 0.979503
vt 0.104888 0.916688
vt 0.738270 0.244346
vt 0.414488 0.436795
vt 0.365835 0.938814
vt 0.045285 0.981317
vt 0.105278 0.976120
vt 0.230271 0.000000
vt 0.636408 0.976461
vt 0.995473 0.654833
vt 0.960932 0.849622
vt 0.414488 0.263372
vt 0.771768 0.912850
vt 0.184148 0.974023
vt 0.056837 0.924235
vt 0.771769 0.912850
vt 0.460542 0.280643
vt 0.820954 0.912850
vt 0.738252 0.197588
vt 0.960932 0.460542
vt 0.705489 0.919378
vt 0.693491 0.725087
vt 0.400376 0.923742
vt 0.142963 0.976120
vt 0.903850 0.572120
vt 0.230271 0.000000
vt 0.184148 0.916941
vt 0.795389 0.400136
vt 0.365835 0.923742
vt 0.608324 0.921537
vt 0.490581 0.702326
vt 0.960932 0.610218
vt 0.460542 0.483208
vt 0.241231 0.916941
vt 0.738331 0.400138
vt 0.400376 0.961841
vt 0.608324 0.978619
vt 0.903850 0.610218
vt 0.000000 0.981317
vt 0.013994 0.856586
vt 0.547664 0.092108
vt 0.454785 0.083113
vt 0.960932 0.610218
vt 0.738342 0.000003
vt 0.509601 0.858345
vt 0.564164 0.834769
vt 0.105278 0.483208
vt 0.571240 0.728358
vt 0.184148 0.483208
vt 0.371400 0.497779
vt 0.552271 0.834769
vt 0.701374 0.426001
vt 0.290559 0.677839
vt 0.377113 0.923742
vt 0.059444 0.754982
vt 0.277419 0.945955
vt 0.608324 0.921537
vt 0.701374 0.000000
vt 0.714776 0.429281
vt 0.411505 0.912486
vt 0.241231 0.945955
vt 0.105278 0.740281
vt 0.960562 0.930584
vt 0.608324 0.969671
vt 0.105278 0.727883
vt 0.290559 0.483208
vt 0.079890 0.856586
vt 0.000000 0.569651
vt 0.056837 0.856586
vt 0.460542 0.941180
vt 0.021591 0.561571
vt 0.460542 0.834769
vt 0.509601 0.941180
vt 0.006607 0.514856
vt 0.714776 0.000003
vt 0.411505 0.483208
vt 0.509601 0.834769
vt 0.714686 0.197589
vt 0.408398 0.680797
vt 0.579325 0.460542
vt 0.564164 0.728358
vt 0.464830 0.728358
vt 0.184148 0.483208
vt 0.821142 0.429278
vt 0.371400 0.494464
vt 0.241231 0.839544
vt 0.331294 0.909171
vt 0.552271 0.941180
vt 0.594963 0.426001
vt 0.705974 0.705331
vt 0.184148 0.677839
vt 0.337007 0.483208
vt 0.277419 0.839544
vt 0.986858 0.978719
vt 0.594963 0.000000
vt 0.657840 0.705331
vt 0.986858 0.930584
vt 0.169260 1.000000
vt 0.705974 0.510700
vt 0.184148 0.483208
vt 0.079890 0.962996
vt 0.682947 0.509601
vt 0.056837 0.962996
vt 0.460542 0.834769
vt 0.682947 0.460542
vt 0.460542 0.728358
vt 0.509601 0.834769
vt 0.821142 0.000000
vt 0.371400 0.923742
vt 0.509601 0.941180
vt 0.579325 0.725087
vt 0.464830 0.463813
vt 0.169260 0.919038
vt 0.852182 0.483569
vt 0.411505 0.488746
vt 0.575299 0.996475
vt 0.103686 0.754982
vt 0.898015 0.944403
vt 0.315352 0.483208
vt 0.821142 0.460542
vt 0.552271 0.996475
vt 0.184148 0.677839
vt 0.821142 0.483569
vt 0.989561 0.930584
vt 0.579325 0.969671
vt 0.290559 0.943767
vt 0.846249 0.000000
vt 0.575299 0.834769
vt 0.103686 0.916688
vt 0.796299 0.889823
vt 0.552271 0.834769
vt 0.184148 0.839544
vt 0.796299 0.912850
vt 0.960562 0.930584
vt 0.142964 1.000000
vt 0.771192 0.429281
vt 0.971220 0.978719
vt 0.976005 0.000000
vt 0.579325 0.000000
vt 0.960562 0.968060
vt 0.960933 0.000000
vt 0.808668 0.429281
vt 0.091317 0.916688
vt 0.960933 0.460542
vt 0.808668 0.889823
vt 0.080659 0.906029
vt 0.976005 0.460542
vt 0.579325 0.460542
vt 0.266856 0.677839
vt 0.852182 0.952644
vt 0.903850 0.483569
vt 0.287770 0.698753
vt 0.579325 0.000000
vt 0.881759 0.952644
vt 0.579325 0.092108
vt 0.881759 0.860536
vt 0.968647 0.849622
vt 0.579325 0.463813
vt 0.881759 0.488831
vt 0.184148 0.747877
vt 0.989561 0.871188
vt 0.852182 0.483569
vt 0.903850 0.014493
vt 0.585743 0.929444
vt 0.446606 0.943751
vt 0.898015 0.483569
vt 0.331294 0.943767
vt 0.595012 0.921537
vt 0.714686 0.000000
vt 0.458779 0.943750
vt 0.080659 0.770669
vt 0.714686 0.460542
vt 0.458779 0.483209
vt 0.088255 0.760128
vt 0.445796 0.483208
vt 0.881759 0.943825
vt 0.142964 0.941732
vt 0.714686 0.443499
vt 0.445796 0.483208
vt 0.287770 0.817536
vt 0.460542 0.000000
vt 0.821142 0.946362
vt 0.265762 0.839544
vt 0.852182 0.948648
vt 0.714686 0.912850
vt 0.445796 0.952559
s 0
usemtl Material.002
f 25/74/1 47/141/1 21/61/1 23/68/1
f 16/46/1 3/7/1 6/17/1 12/33/1
f 22/64/1 10/27/1 7/20/1 13/36/1
f 20/57/1 8/23/1 19/54/1 4/11/1
f 51/154/2 43/129/2 41/124/2 38/116/2 31/95/2 48/145/2 28/84/2 27/81/2 36/109/2 40/120/2
f 10/28/3 40/121/3 35/106/3 7/21/3
f 24/71/4 11/32/4 41/125/4 43/130/4
f 3/8/5 50/151/5 34/103/5 6/18/5
f 71/223/1 66/208/1 65/202/1 67/211/1 68/214/1 69/217/1 62/192/1
f 12/34/6 42/126/6 26/78/6 16/47/6
f 45/135/2 39/117/2 33/100/2 49/148/2
f 26/79/2 42/127/2 34/104/2 50/152/2
f 36/110/2 44/132/2 35/107/2 40/122/2
f 32/96/2 30/90/2 29/87/2 37/113/2
f 13/37/5 44/133/5 36/111/5 22/65/5
f 47/142/7 49/149/7 33/101/7 21/62/7
f 7/22/8 35/108/8 44/134/8 13/38/8
f 19/55/9 29/88/9 30/91/9 4/12/9
f 67/212/8 65/203/8 54/165/8 57/178/8
f 10/29/10 15/42/10 51/155/10 40/123/10
f 21/63/11 33/102/11 39/118/11 23/69/11
f 15/43/1 10/30/1 22/66/1 18/51/1 2/4/1 46/138/1 5/14/1 9/26/1 11/31/1 24/72/1
f 67/213/12 57/179/12 58/181/12 68/215/12
f 2/5/8 18/52/8 27/82/8 28/85/8
f 23/70/13 39/119/13 45/136/13 25/75/13
f 46/139/14 2/6/14 28/86/14 48/146/14
f 8/24/15 37/114/15 29/89/15 19/56/15
f 6/19/16 34/105/16 42/128/16 12/35/16
f 55/171/17 63/196/17 70/220/17 15/44/17 24/73/17 43/131/17 51/156/17 60/187/17 61/190/17 14/39/17 32/97/17 37/115/17 8/25/17 20/58/17 5/15/17 46/140/17 48/147/17 31/93/17 1/1/17
f 4/13/18 30/92/18 32/98/18 20/59/18
f 76/243/8 73/233/8 72/228/8 75/240/8
f 18/53/19 22/67/19 36/112/19 27/83/19
f 31/94/8 5/16/8 20/60/8 32/99/8 14/40/8 1/2/8
f 54/166/2 55/172/2 1/3/2 14/41/2 61/191/2 60/188/2 53/162/2
f 52/158/5 62/193/5 69/218/5 59/184/5
f 69/219/8 68/216/8 58/182/8 59/185/8
f 56/174/2 52/159/2 59/186/2 58/183/2 57/180/2 54/167/2
f 65/204/1 64/199/1 70/221/1 63/197/1
f 64/200/20 53/163/20 60/189/20 51/157/20 15/45/20 70/222/20
f 55/173/21 54/168/21 65/205/21 63/198/21
f 56/175/22 74/236/22 86/273/22 85/269/22
f 3/9/23 47/143/23 17/49/23 52/160/23 85/270/23 84/267/23 50/153/23
f 76/244/3 93/295/3 92/292/3 83/264/3 82/261/3 73/234/3
f 80/255/3 75/241/3 72/229/3 90/286/3 89/283/3 81/258/3
f 92/293/23 71/224/23 62/194/23 17/49/23 47/143/23 25/76/23 3/9/23 16/48/23 26/80/23 50/153/23 84/267/23 83/265/23
f 56/176/5 54/169/5 88/280/5 87/276/5 74/237/5
f 66/209/5 77/246/5 79/252/5 78/249/5 65/206/5
f 80/256/24 81/259/24 78/250/24 79/253/24
f 71/225/22 91/289/22 77/247/22 66/210/22
f 65/207/8 78/251/8 81/260/8 89/284/8 88/281/8 54/170/8 53/164/8 64/201/8
f 89/285/25 90/287/25 87/277/25 88/282/25
f 82/262/26 83/266/26 84/268/26 85/271/26 86/274/26
f 93/296/27 71/226/27 92/294/27
f 77/248/1 91/290/1 93/297/1 76/245/1 75/242/1 80/257/1 79/254/1
f 91/291/28 71/227/28 93/298/28
f 90/288/29 72/230/29 87/278/29
f 87/279/30 72/231/30 74/238/30
f 25/77/8 45/137/8 49/150/8 47/144/8 3/10/8
f 85/272/31 52/161/31 56/177/31
f 17/50/23 62/195/23 52/161/23
f 73/235/2 82/263/2 86/275/2 74/239/2 72/232/2
f 9/26/32 5/16/32 31/95/32 38/116/32
f 11/32/23 9/26/23 38/116/23 41/125/23
