# Blender 3.1.0
# www.blender.org
mtllib map_walls.mtl
o Walls
v -9.000000 0.000000 -9.000000
v -9.000000 4.999999 -9.000000
v 14.000000 0.000000 -9.000000
v 17.000000 0.000000 2.000000
v 17.000000 0.000000 -9.000000
v 17.000000 4.999999 -9.000000
v 14.000000 4.999999 -9.000000
v -9.000000 0.000000 11.000001
v -9.000000 5.000000 11.000000
v 9.000000 0.000000 11.000001
v 9.000000 5.000000 11.000000
v 9.000000 0.000000 2.000000
v 9.000000 5.000000 2.000000
v 17.000000 5.000000 2.000000
vn -0.0000 -0.0000 1.0000
vn 1.0000 -0.0000 -0.0000
vn -0.0000 -0.0000 -1.0000
vn -1.0000 -0.0000 -0.0000
vt -4.656673 1.309655
vt -4.656673 -0.059652
vt -9.905689 1.309653
vt 7.895298 1.309652
vt 10.405689 1.309651
vt 10.405689 -0.059653
vt -9.905689 -0.059655
vt -0.092320 1.309653
vt -0.092320 -0.059653
vt 4.015598 1.309652
vt 4.015598 -0.059653
vt 6.069553 1.309652
vt 6.069553 -0.059653
vt 7.895298 -0.059653
s 0
usemtl Material.001
f 1/1/1 3/3/1 7/7/1 2/2/1
f 1/1/2 2/2/2 9/9/2 8/8/2
f 8/8/3 9/9/3 11/11/3 10/10/3
f 10/10/4 11/11/4 13/13/4 12/12/4
f 12/12/3 13/13/3 14/14/3 4/4/3
f 4/4/4 14/14/4 6/6/4 5/5/4
