# Blender 3.1.0
# www.blender.org
mtllib map_ground.mtl
o Ground
v 9.000000 0.000000 9.000000
v -14.000000 0.000000 9.000000
v -17.000000 0.000000 -2.000000
v -17.000000 0.000000 9.000000
v 9.000000 0.000000 -11.000001
v -9.000000 0.000000 -11.000001
v -9.000000 0.000000 -2.000000
vn -0.0000 1.0000 -0.0000
vt -3.506201 -2.745239
vt 2.254771 -2.745239
vt 3.006201 -0.000476
vt 3.006201 -2.745239
vt -3.506201 2.245239
vt 1.002385 2.245239
vt 1.002385 -0.000476
s 0
usemtl Material.002
f 5/5/1 7/7/1 4/4/1
f 2/2/1 1/1/1 5/5/1
f 5/5/1 6/6/1 7/7/1
f 7/7/1 3/3/1 4/4/1
f 4/4/1 2/2/1 5/5/1
